<?xml version="1.0" encoding="UTF-8"?>
<!-- Generator: Adobe Illustrator 20.1.0, SVG Export Plug-In . SVG Version: 6.00 Build 0)  -->
<svg version="1.1" id="Layer_1" xmlns="http://www.w3.org/2000/svg" xmlns:xlink="http://www.w3.org/1999/xlink" x="0px" y="0px" width="394.5px" height="342.9px" viewBox="0 0 394.5 342.9" style="enable-background: new 0 0 394.5 342.9" xml:space="preserve">
<style type="text/css">
	.st0{fill:#000000;}
</style>
<g>
	<g>
		<g>
			<path class="st0" d="M 99.9 299.2 v 25.1 c 0 8 -5.8 13.8 -13.9 13.8 c -8 0 -13.9 -5.8 -13.9 -13.8 v -25.1 h 5.4 v 25.1 c 0 4.9 3.6 8.4 8.5 8.4 s 8.5 -3.5 8.5 -8.4 v -25.1 H 99.9 z"/>
		</g>
		<g>
			<path class="st0" d="M 143 317.8 v 1 c 0 12.3 -6.5 19.4 -17.9 19.4 c -10.8 0 -19.3 -8.6 -19.3 -19.7 s 8.5 -19.7 19.3 -19.7 c 4.5 0 8.8 1.5 12.3 4.5 l 0.8 0.7 l -3.9 3.8 l -0.7 -0.5 c -2.4 -2 -5.4 -3 -8.6 -3 c -7.8 0 -13.9 6.3 -13.9 14.3 s 6.1 14.2 13.9 14.2 c 6.9 0 11.2 -3.5 12 -9.7 h -10.6 v -5.3 L 143 317.8 L 143 317.8 z"/>
		</g>
		<g>
			<path class="st0" d="M 169.9 317.1 c 2 -1.6 3.1 -4.3 3.1 -7.8 c 0 -6.1 -4.1 -10 -10.4 -10 h -14.3 v 38.4 h 15.5 c 6.6 0 11.2 -4.6 11.2 -11.2 C 174.9 322.9 173 318.8 169.9 317.1 z M 163.7 332.2 h -10 v -12.3 h 9.7 c 3.7 0 6 3.8 6 6.5 C 169.5 329.3 167.5 332.2 163.7 332.2 z M 153.8 304.6 h 8.4 c 1.6 0 5.4 0.5 5.4 4.6 c 0 2.7 -1.2 5.5 -4.6 5.5 h -9.2 L 153.8 304.6 L 153.8 304.6 z"/>
		</g>
		<g>
			<polygon class="st0" points="209.1,299.2 194.3,320.1 194.3,337.6 188.8,337.6 188.8,320 174.2,299.2 180.7,299.2 191.6,314.3 202.5,299.2"/>
		</g>
		<g>
			<g>
				<path class="st0" d="M 262.4 332.3 l -0.7 0.7 c -3.6 3.7 -8.5 5.7 -13.7 5.7 c -10.6 0 -18.7 -8.4 -18.7 -19.7 c 0 -11.2 8 -19.7 18.7 -19.7 c 5.2 0 10.1 2 13.7 5.7 l 0.7 0.7 l -3.8 3.8 l -0.7 -0.7 c -2.6 -2.6 -6.2 -4.1 -9.9 -4.1 c -7.5 0 -13.2 6.1 -13.2 14.3 c 0 8.3 5.6 14.2 13.2 14.2 c 3.8 0 7.3 -1.5 9.9 -4.2 l 0.7 -0.7 L 262.4 332.3 z"/>
			</g>
			<g>
				<polygon class="st0" points="287.9,332.7 287.9,338.1 267,338.1 267,299.7 272.4,299.7 272.4,332.7"/>
			</g>
			<g>
				<path class="st0" d="M 319.3 299.7 v 25.1 c 0 8 -5.8 13.8 -13.9 13.8 s -13.9 -5.8 -13.9 -13.8 v -25.1 h 5.4 v 25.1 c 0 4.9 3.6 8.4 8.5 8.4 s 8.5 -3.5 8.5 -8.4 v -25.1 H 319.3 z"/>
			</g>
			<g>
				<path class="st0" d="M 349.2 317.6 c 2 -1.6 3.1 -4.3 3.1 -7.8 c 0 -6.1 -4.1 -10 -10.4 -10 h -14.3 v 38.4 h 15.5 c 6.6 0 11.2 -4.6 11.2 -11.2 C 354.3 323.4 352.3 319.3 349.2 317.6 z M 343.1 332.7 h -9.9 v -12.3 h 9.7 c 3.7 0 6 3.8 6 6.5 C 348.9 329.8 346.8 332.7 343.1 332.7 z M 333.1 305.1 h 8.4 c 1.6 0 5.4 0.5 5.4 4.7 c 0 2.7 -1.2 5.5 -4.6 5.5 h -9.2 L 333.1 305.1 L 333.1 305.1 z"/>
			</g>
		</g>
		<g>
			<g>
				<path class="st0" d="M 56.9 323.2 c 6.5 -1 8.9 -6.6 8.9 -11.9 c 0 -5.9 -2.9 -12.1 -11.1 -12.1 H 40.2 v 38.4 h 5.5 v -20.8 l 14.7 20.8 H 67 L 56.9 323.2 z M 45.7 304.6 h 9 c 5.1 0 5.7 4.7 5.7 6.7 c 0 2.5 -0.8 6.6 -5.9 6.6 h -1.3 l -7.4 -10.4 L 45.7 304.6 L 45.7 304.6 L 45.7 304.6 z"/>
			</g>
		</g>
	</g>
	<g>
		<g>
			<path class="st0" d="M 14.7 244.7 H 0 v 38.4 h 14.7 c 10.2 0 17.1 -7.7 17.1 -19.1 C 31.8 252.4 24.9 244.7 14.7 244.7 z M 14.7 277.7 H 5.4 v -27.6 h 9.3 c 7.3 0 11.7 5.2 11.7 13.9 C 26.4 272.5 22 277.7 14.7 277.7 z"/>
		</g>
		<g>
			<polygon class="st0" points="61.6,277.7 61.6,283.1 38.2,283.1 38.2,244.7 61,244.7 61,250.1 43.7,250.1 43.7,261.5 58.8,261.5 58.8,266.9 43.7,266.9 43.7,277.7"/>
		</g>
		<g>
			<polygon class="st0" points="95.5,244.7 95.5,283.1 90.3,283.1 73.3,255 73.3,283.1 67.9,283.1 67.9,244.7 73.1,244.7 90,272.5 90,244.7"/>
		</g>
		<g>
			<path class="st0" d="M 118.8 244.7 h -14.7 v 38.4 h 14.7 c 10.2 0 17.1 -7.7 17.1 -19.1 C 135.9 252.4 129 244.7 118.8 244.7 z M 118.8 277.7 h -9.3 v -27.6 h 9.3 c 7.3 0 11.7 5.2 11.7 13.9 C 130.5 272.5 126.1 277.7 118.8 277.7 z"/>
		</g>
		<g>
			<polygon class="st0" points="165.7,277.7 165.7,283.1 142.4,283.1 142.4,244.7 165.1,244.7 165.1,250.1 147.8,250.1 147.8,261.5 162.9,261.5 162.9,266.9 147.8,266.9 147.8,277.7"/>
		</g>
		<g>
			<polygon class="st0" points="247.7,283.1 242.4,283.1 238.9,255.2 227.2,279.1 222.5,279.1 210.8,255.2 207.4,283.1 202,283.1 206.7,244.7 211.6,244.7 224.9,271.9 238.1,244.7 243.1,244.7"/>
		</g>
		<g>
			<path class="st0" d="M 271.1 244.2 c -10.8 0 -19.3 8.7 -19.3 19.7 c 0 11 8.5 19.7 19.3 19.7 s 19.3 -8.6 19.3 -19.7 C 290.4 252.9 281.9 244.2 271.1 244.2 z M 271.1 278.2 c -7.8 0 -13.9 -6.3 -13.9 -14.2 c 0 -8 6.1 -14.3 13.9 -14.3 S 285 256 285 264 C 285 271.9 278.9 278.2 271.1 278.2 z"/>
		</g>
		<g>
			<polygon class="st0" points="324.3,244.7 324.3,283.1 319.1,283.1 302.1,255 302.1,283.1 296.7,283.1 296.7,244.7 301.9,244.7 318.8,272.5 318.8,244.7"/>
		</g>
		<g>
			<path class="st0" d="M 347.6 244.7 h -14.7 v 38.4 h 14.7 c 10.2 0 17.1 -7.7 17.1 -19.1 C 364.7 252.4 357.8 244.7 347.6 244.7 z M 347.6 277.7 h -9.3 v -27.6 h 9.3 c 7.3 0 11.7 5.2 11.7 13.9 C 359.3 272.5 354.9 277.7 347.6 277.7 z"/>
		</g>
		<g>
			<polygon class="st0" points="394.5,277.7 394.5,283.1 371.2,283.1 371.2,244.7 393.9,244.7 393.9,250.1 376.6,250.1 376.6,261.5 391.7,261.5 391.7,266.9 376.6,266.9 376.6,277.7"/>
		</g>
		<g>
			<g>
				<path class="st0" d="M 188.6 268.7 c 6.5 -1 8.9 -6.6 8.9 -11.9 c 0 -5.9 -2.9 -12.1 -11.1 -12.1 h -14.5 v 38.4 h 5.5 v -20.8 l 14.7 20.8 h 6.7 L 188.6 268.7 z M 177.4 250.1 h 9 c 5.1 0 5.7 4.7 5.7 6.7 c 0 2.5 -0.8 6.6 -5.9 6.6 h -1.3 l -7.4 -10.4 v -2.9 H 177.4 z"/>
			</g>
		</g>
	</g>
</g>
<g>
	
		<rect x="153.4" y="61.4" transform="matrix(0.8,-0.7,0.7,0.8,-2.7,123.9)" class="st0" width="20.4" height="8.3"/>
	<polygon class="st0" points="212.4,115.8 156.2,164.9 117.7,164.9 117.7,45.8 135.8,30 135.8,30 135.8,146.9 149.4,146.9 184.9,115.8"/>
	<path class="st0" d="M 206 30.1 c -5 -1.1 -10.3 -1.8 -15.9 -2 h -54.4 L 113.9 3.2 h 68.5 L 206 30.1 z"/>
	<g>
		<path class="st0" d="M 280.5 92.3 v 20.9 l -105.9 92.6 h -37.5 l 118.5 -103.6 v -12 c 0 -13.3 -6.9 -31.1 -16.9 -41.8 L 200 4 c 5.7 0.6 11.1 1.7 16.3 3.1 c 15.9 4.4 29.6 12.6 40.5 24.3 C 271.6 47.3 279.8 68.6 280.5 92.3 z"/>
	</g>
</g>
</svg>