<?xml version="1.0" encoding="UTF-8" standalone="yes"?><!-- Generator: Adobe Illustrator 20.1.0, SVG Export Plug-In . SVG Version: 6.00 Build 0)  --><svg xmlns="http://www.w3.org/2000/svg" xmlns:xlink="http://www.w3.org/1999/xlink" id="Layer_1" style="enable-background: new 0 0 394.5 342.9;zoom: 1;" xml:space="preserve" version="1.1" x="0px" y="0px" width="394.5px" height="220px" cursor="default" viewBox="0 0 394.5 342.9"><style type="text/css">
        .st0{fill:#000000;}
</style><g><g><g></g><g></g><g></g><g></g><g><g></g><g></g><g></g><g></g></g><g><g></g></g></g><g><g></g><g></g><g></g><g></g><g></g><g></g><g></g><g></g><g></g><g></g><g><g></g></g></g></g><g><rect x="153.4" y="61.4" transform="matrix(0.8,-0.7,0.7,0.8,-2.7,123.9)" class="st0" width="20.4" height="8.3"></rect><polygon class="st0" points="212.4,115.8 156.2,164.9 117.7,164.9 117.7,45.8 135.8,30 135.8,30 135.8,146.9 149.4,146.9 184.9,115.8"></polygon><path class="st0" d="M 206 30.1 c -5 -1.1 -10.3 -1.8 -15.9 -2 h -54.4 L 113.9 3.2 h 68.5 L 206 30.1 z"></path><g><path class="st0" d="M280.5,92.3 v20.9 l-105.9,92.6 h-37.5 l118.5,-103.6 v-12 c0,-13.3 -6.9,-31.1 -16.9,-41.8 L200,4 c5.7,0.6 11.1,1.7 16.3,3.1 c15.9,4.4 29.6,12.6 40.5,24.3 C271.6,47.3 279.8,68.6 280.5,92.3 "></path></g></g></svg>